<svg width="22" height="19" viewBox="0 0 22 19" fill="none" xmlns="http://www.w3.org/2000/svg">
<path d="M11.159 2.5739L8.336 5.3359C7.96106 5.71096 7.75043 6.21957 7.75043 6.7499C7.75043 7.28023 7.96106 7.78884 8.336 8.1639C8.71106 8.53884 9.21967 8.74947 9.75 8.74947C10.2803 8.74947 10.7889 8.53884 11.164 8.1639L12.874 6.4539C13.0978 6.23 13.3635 6.05239 13.656 5.93121C13.9485 5.81003 14.2619 5.74766 14.5785 5.74766C14.8951 5.74766 15.2085 5.81003 15.501 5.93121C15.7935 6.05239 16.0592 6.23 16.283 6.4539L18.164 8.3359C18.5389 8.71096 18.7496 9.21957 18.7496 9.7499C18.7496 10.2802 18.5389 10.7888 18.164 11.1639C19.75 9.5779 20.75 8.2499 20.75 6.2499C20.75 5.1371 20.4124 4.05048 19.7819 3.13356C19.1513 2.21664 18.2575 1.51256 17.2184 1.1143C16.1793 0.71604 15.0438 0.642344 13.962 0.902944C12.8801 1.16354 11.9028 1.74618 11.159 2.5739ZM18.164 11.1639C17.9668 11.3612 17.7326 11.5176 17.4749 11.6244C17.2172 11.7312 16.941 11.7861 16.662 11.7861C16.383 11.7861 16.1068 11.7312 15.8491 11.6244C15.5914 11.5176 15.3572 11.3612 15.16 11.1639C15.3735 11.357 15.5456 11.5915 15.6657 11.8532C15.7858 12.1148 15.8515 12.3982 15.8587 12.686C15.866 12.9738 15.8146 13.2601 15.7078 13.5274C15.601 13.7948 15.4409 14.0376 15.2373 14.2412C15.0337 14.4448 14.7909 14.6049 14.5235 14.7117C14.2562 14.8185 13.9699 14.8699 13.6821 14.8626C13.3943 14.8554 13.1109 14.7897 12.8493 14.6696C12.5876 14.5495 12.3531 14.3774 12.16 14.1639C12.3574 14.3605 12.5141 14.5941 12.6212 14.8514C12.7282 15.1086 12.7835 15.3844 12.7839 15.6631C12.7842 15.9417 12.7297 16.2177 12.6233 16.4752C12.517 16.7327 12.3609 16.9667 12.164 17.1639C11.974 17.354 11.7476 17.5038 11.4984 17.6044C11.2491 17.7051 10.9822 17.7544 10.7135 17.7496C10.4447 17.7447 10.1797 17.6858 9.93429 17.5762C9.68886 17.4666 9.46804 17.3087 9.285 17.1119L3.75 11.7499C2.25 10.2499 0.75 8.5499 0.75 6.2499C0.750223 5.13719 1.08794 4.05071 1.71856 3.13395C2.34917 2.21718 3.24303 1.51325 4.28208 1.11512C5.32112 0.716986 6.4565 0.643373 7.53826 0.904002C8.62002 1.16463 9.59728 1.74724 10.341 2.5749C10.4522 2.67823 10.5984 2.73559 10.7502 2.7354C10.902 2.73522 11.0481 2.67751 11.159 2.5739" stroke="white" stroke-width="1.5" stroke-linecap="round" stroke-linejoin="round"/>
</svg>
