<svg width="48" height="48" viewBox="0 0 48 48" fill="none" xmlns="http://www.w3.org/2000/svg">
<g clip-path="url(#clip0_192_236)">
<circle cx="24" cy="24" r="24" fill="#FFDD89"/>
<path d="M16 25H34" stroke="black" stroke-linecap="round" stroke-linejoin="round"/>
<path d="M17 33L17.9306 32.0694C18.4593 31.5407 18.7237 31.2763 19.0568 31.126C19.39 30.9756 19.7631 30.9523 20.5095 30.9057L23.7619 30.7024C25.3604 30.6025 26.1597 30.5525 26.863 30.2148C27.5664 29.877 28.1051 29.2844 29.1824 28.0993L32 25H28.5L26.7071 26.7929C26.5879 26.9121 26.5282 26.9718 26.4662 27.0244C26.1472 27.2954 25.7512 27.4594 25.3341 27.4934C25.2529 27.5 25.1686 27.5 25 27.5M25 27.5C25 27.0353 25 26.803 24.9616 26.6098C24.8038 25.8164 24.1836 25.1962 23.3902 25.0384C23.197 25 22.9647 25 22.5 25H21.7185C20.6734 25 20.1509 25 19.661 25.126C19.296 25.2198 18.9461 25.3647 18.6217 25.5564C18.1862 25.8138 17.8167 26.1833 17.0777 26.9223L14 30M25 27.5H21.5" stroke="black" stroke-linecap="round" stroke-linejoin="round"/>
<path d="M17 22.5C17 18.0817 20.5817 14.5 25 14.5M25 14.5C29.4183 14.5 33 18.0817 33 22.5M25 14.5V13" stroke="black" stroke-linecap="round" stroke-linejoin="round"/>
</g>
<defs>
<clipPath id="clip0_192_236">
<rect width="48" height="48" fill="white"/>
</clipPath>
</defs>
</svg>
