<svg width="24" height="24" viewBox="0 0 24 24" fill="none" xmlns="http://www.w3.org/2000/svg">
<path d="M14.4291 14.2839L11.3227 17.3903L9.39451 19.3184C8.76565 19.9473 7.94797 20.2723 7.12396 20.2934C6.01406 20.3218 5.45909 20.336 5.26283 20.4203C5.06658 20.5045 4.87451 20.6966 4.49036 21.0807L3.89627 21.6748C3.46247 22.1086 2.75915 22.1086 2.32535 21.6748C1.89155 21.241 1.89155 20.5377 2.32535 20.1039L2.91944 19.5098C3.30358 19.1257 3.49566 18.9336 3.57991 18.7373C3.66415 18.5411 3.67836 17.9861 3.70679 16.8762C3.72789 16.0522 4.05287 15.2345 4.68174 14.6057L11.2872 8.00018M11.3227 17.3903L9.75177 15.8193M14.4291 14.2839L16 12.713M14.4291 14.2839L12.8582 12.713" stroke="#BEBEBE" stroke-width="1.5" stroke-linecap="round" stroke-linejoin="round"/>
<path d="M21.068 7.43213L19.5002 8.99992C18.6718 9.82837 18.6718 11.1715 19.5002 12L12 4.49979C12.8285 5.32824 14.1716 5.32824 15.0001 4.49979L16.5679 2.93201C17.8105 1.68933 19.8253 1.68933 21.068 2.93201C22.3107 4.17468 22.3107 6.18946 21.068 7.43213Z" stroke="#BEBEBE" stroke-width="1.5" stroke-linecap="round" stroke-linejoin="round"/>
</svg>
