<svg width="19" height="21" viewBox="0 0 19 21" fill="none" xmlns="http://www.w3.org/2000/svg">
<path d="M0.5 4H18.5M13.5557 4L12.8731 2.59173C12.4196 1.65626 12.1928 1.18852 11.8017 0.89681C11.715 0.8321 11.6231 0.77454 11.527 0.7247C11.0939 0.5 10.5741 0.5 9.5345 0.5C8.4688 0.5 7.936 0.5 7.49568 0.73412C7.3981 0.78601 7.30498 0.8459 7.21729 0.91317C6.82164 1.2167 6.60063 1.70155 6.15861 2.67126L5.55292 4" stroke="black" stroke-linecap="round"/>
<path d="M17 4L16.3803 14.0251C16.2219 16.5864 16.1428 17.8671 15.5008 18.7879C15.1833 19.2431 14.7747 19.6273 14.3007 19.916C13.3421 20.5 12.059 20.5 9.4927 20.5C6.92312 20.5 5.6383 20.5 4.67905 19.9149C4.2048 19.6257 3.796 19.2408 3.47868 18.7848C2.83688 17.8626 2.75945 16.5801 2.60461 14.0152L2 4" stroke="black" stroke-linecap="round"/>
<path d="M7 15V9" stroke="black" stroke-linecap="round"/>
<path d="M12 15V9" stroke="black" stroke-linecap="round"/>
</svg>
