<svg width="43" height="43" viewBox="0 0 43 43" fill="none" xmlns="http://www.w3.org/2000/svg">
<rect width="43" height="43" rx="21.5" fill="#FFDD89"/>
<g clip-path="url(#clip0_1808_1161)">
<path d="M11.7351 15.3842L11.7332 15.3745C11.7048 15.2237 11.5673 15.1447 11.4617 15.0942C11.4066 15.0678 11.3405 15.0412 11.2888 15.018C11.2334 14.9931 11.1859 14.9692 11.1482 14.9428C10.1969 14.2761 9.92872 13.1442 10.2 12.145C10.4709 11.147 11.2758 10.297 12.4578 10.1899C14.2193 10.2918 16.06 10.223 17.8894 10.1626C19.7245 10.1019 21.5487 10.0508 23.283 10.187C25.4435 10.3564 26.4893 12.9393 25.0085 14.5444C24.8616 14.7034 24.702 14.8141 24.531 14.9194C24.3627 15.023 24.1743 15.1257 23.991 15.2592L23.9587 15.2837L23.9519 15.3227C23.9111 15.5503 23.9072 15.8536 23.9158 16.184C23.9244 16.5145 23.9462 16.8865 23.9597 17.2436C23.9733 17.6038 23.9782 17.9543 23.9548 18.2563C23.9312 18.5618 23.8788 18.8027 23.7878 18.9536C23.4204 19.5626 22.4487 19.3839 22.3269 18.688C22.3588 18.0222 22.3246 17.3115 22.2966 16.6108C22.2684 15.9018 22.2474 15.2018 22.3083 14.5551C22.3355 14.2654 22.4495 14.0377 22.6892 13.8833C22.7745 13.8286 22.8803 13.799 23.0037 13.7758C23.0653 13.7643 23.1288 13.755 23.1951 13.7446C23.2603 13.7344 23.3277 13.7225 23.3943 13.7075C23.5272 13.6774 23.6635 13.6307 23.78 13.5376C23.8984 13.4429 23.9892 13.3068 24.0408 13.1118C24.1257 12.7893 24.1044 12.501 23.9695 12.2719C23.8385 12.0499 23.6096 11.8998 23.3083 11.8227L23.2976 11.812H23.2566C20.2776 11.7885 17.288 11.7684 14.2888 11.7514H14.2859C13.7279 11.764 13.0653 11.8526 12.5203 11.938C12.1279 11.9997 11.9035 12.3379 11.8494 12.6753C11.7958 13.0099 11.9026 13.3958 12.2341 13.5503L12.2488 13.5571L12.2644 13.559C12.598 13.5988 12.8565 13.6888 13.0466 13.8227C13.2322 13.9535 13.3573 14.1296 13.4236 14.3549L13.4558 26.9282V26.9448L13.4607 26.9594C13.524 27.1513 13.6295 27.3043 13.7722 27.4145C13.9146 27.5245 14.0893 27.5883 14.2859 27.6098H14.2878C15.4275 27.7164 16.5735 27.7896 17.7332 27.7075L18.3328 27.7631C18.7256 27.9154 18.8993 28.2771 18.863 28.6167C18.8268 28.9559 18.5811 29.2722 18.1199 29.3237C17.7009 29.3705 16.78 29.3938 15.863 29.3833C14.9428 29.3727 14.0453 29.3276 13.6677 29.2407C12.7262 29.0235 11.9477 28.1781 11.7615 27.229L11.7322 27.0376L11.7351 15.393V15.3842Z" fill="black" stroke="#FFDD89" stroke-width="0.2"/>
<path d="M17.7236 18.8083C17.9713 18.7582 18.1549 18.7902 18.292 18.8669C18.4302 18.9442 18.5334 19.074 18.6064 19.2409C18.754 19.5784 18.7683 20.044 18.7178 20.4274L18.7021 20.5456L18.8213 20.5397C19.141 20.5259 19.5331 20.5114 19.8604 20.5964C20.0227 20.6385 20.163 20.704 20.2686 20.8005C20.3464 20.8717 20.408 20.9629 20.4463 21.0807L20.4766 21.2087C20.5167 21.4659 20.4781 21.6492 20.3984 21.7819C20.3183 21.9152 20.1891 22.0105 20.0225 22.0749C19.6841 22.2056 19.2215 22.2014 18.8262 22.1637L18.7168 22.153V23.2721C18.7168 23.262 18.7193 23.2613 18.7129 23.28C18.708 23.2944 18.7007 23.314 18.6904 23.3376C18.6699 23.3845 18.6406 23.4432 18.6094 23.5026C18.5782 23.5618 18.5449 23.6202 18.5156 23.6677C18.5009 23.6915 18.4878 23.7125 18.4766 23.7282C18.4711 23.7358 18.4667 23.7421 18.4629 23.7468L18.4561 23.7536C18.3396 23.8633 18.1404 23.9281 17.9258 23.9323C17.7114 23.9364 17.5063 23.8797 17.3818 23.778C17.3818 23.778 17.3798 23.7763 17.376 23.7721C17.372 23.7679 17.3664 23.762 17.3604 23.7546C17.3483 23.7398 17.3336 23.7207 17.3174 23.6979C17.2846 23.6521 17.2468 23.5949 17.2109 23.5378C17.1751 23.4806 17.1421 23.4243 17.1182 23.3805C17.1061 23.3585 17.0975 23.3403 17.0918 23.3278C17.0905 23.325 17.0896 23.3227 17.0889 23.321V22.1628H15.9121C15.8803 22.1628 15.8349 22.1482 15.7764 22.112C15.7193 22.0766 15.6579 22.0263 15.5977 21.9675C15.4872 21.8595 15.3878 21.7311 15.3262 21.6432C15.3319 21.3963 15.3046 21.2808 15.3857 21.0612L15.3916 21.0436C15.506 20.7525 15.7368 20.6261 16.0273 20.572C16.3323 20.5152 16.6749 20.5418 16.9902 20.5397H17.0928L17.0889 20.4372C17.0785 20.1055 17.0534 19.7318 17.1279 19.4177C17.1646 19.263 17.2249 19.1302 17.3174 19.027C17.4088 18.9251 17.5374 18.8461 17.7236 18.8083Z" fill="black" stroke="#FFDD89" stroke-width="0.2"/>
<path d="M17.8284 13.7025C18.5609 13.7046 19.295 13.729 19.6907 13.766C20.0585 13.8004 20.3236 14.0015 20.4377 14.2543C20.5508 14.505 20.5218 14.8205 20.2766 15.1029C20.0829 15.3264 19.8265 15.3645 19.4934 15.392C18.648 15.4612 17.1549 15.4644 16.3127 15.392C16.1272 15.376 15.9291 15.3442 15.759 15.2729C15.6325 15.2198 15.5252 15.146 15.4485 15.0434L15.3821 14.9311V14.9301C15.356 14.8715 15.3341 14.7611 15.3225 14.6391C15.311 14.5176 15.3122 14.4032 15.3245 14.3393C15.3474 14.22 15.44 14.0874 15.5745 13.977C15.7079 13.8673 15.8663 13.7921 15.9963 13.7738C16.3709 13.7209 17.094 13.7005 17.8284 13.7025Z" fill="black" stroke="#FFDD89" stroke-width="0.2"/>
<path d="M23.8225 21.276C28.7498 18.7123 34.3372 23.4662 32.5627 28.7086C31.1149 32.988 25.6345 34.3209 22.3694 31.152C19.385 28.2547 20.1449 23.1895 23.8225 21.276ZM26.2366 22.1823C23.1204 22.4839 21.242 25.7913 22.5208 28.6413C23.8759 31.6617 28.0267 32.2292 30.1848 29.7145C32.8693 26.5866 30.3399 21.7855 26.2366 22.1823Z" fill="black" stroke="#FFDD89" stroke-width="0.2"/>
<path d="M26.5159 24.189C26.7458 24.1432 26.9955 24.1898 27.1799 24.3277C27.3951 24.4887 27.4822 24.7218 27.5149 24.9937C27.5312 25.1301 27.5337 25.2735 27.5325 25.4185C27.5312 25.5611 27.5261 25.7097 27.5295 25.8462L27.5325 25.9351L27.6213 25.9429C27.742 25.9532 27.8651 25.9509 27.9846 25.9458C28.1061 25.9406 28.2219 25.9331 28.3372 25.9331C28.5664 25.9332 28.7708 25.963 28.9456 26.0855H28.9465C29.4781 26.4574 29.3872 27.2595 28.7717 27.4732C28.6711 27.5081 28.5021 27.5377 28.2913 27.5571C28.0826 27.5764 27.8399 27.5855 27.5969 27.5855C27.3541 27.5855 27.112 27.5764 26.9036 27.5571C26.7455 27.5425 26.6107 27.5223 26.511 27.4986L26.4231 27.4732L26.2952 27.4194C26.1792 27.3598 26.0979 27.2838 26.0393 27.1939C25.9597 27.0717 25.9162 26.9148 25.8987 26.7163C25.8802 26.5089 25.8682 26.0501 25.8792 25.6011C25.8846 25.3772 25.8953 25.1576 25.9143 24.9741C25.9339 24.786 25.9602 24.6487 25.9905 24.5816C26.0864 24.3692 26.2866 24.2347 26.5159 24.189Z" fill="black" stroke="#FFDD89" stroke-width="0.2"/>
</g>
<defs>
<clipPath id="clip0_1808_1161">
<rect width="23" height="23" fill="white" transform="translate(10 10)"/>
</clipPath>
</defs>
</svg>
