<svg width="42" height="42" viewBox="0 0 42 42" fill="none" xmlns="http://www.w3.org/2000/svg">
<rect width="42" height="42" rx="21" fill="#F5DAAA"/>
<path d="M15 21.5L16.7381 18.8929C16.9103 18.6345 17.1404 18.4198 17.4099 18.2658L19.599 17.0149C20.1619 16.6932 20.8483 16.6742 21.4282 16.9641C22.0851 17.2926 22.4658 17.9864 22.7461 18.6652C23.2069 19.7814 24.3984 21 27 21" stroke="#141B34" stroke-width="1.5" stroke-linecap="round" stroke-linejoin="round"/>
<path d="M22.0002 18L20.7774 23.5951M19.5002 17.5L18.7748 20.7645C18.6071 21.519 18.8892 22.3025 19.4993 22.777L23.0002 25.5L24.5002 30" stroke="#141B34" stroke-width="1.5" stroke-linecap="round" stroke-linejoin="round"/>
<path d="M18.5 25L18 26.5L15.5 29.5" stroke="#141B34" stroke-width="1.5" stroke-linecap="round" stroke-linejoin="round"/>
<path d="M24 13.5C24 14.3284 23.3284 15 22.5 15C21.6716 15 21 14.3284 21 13.5C21 12.6716 21.6716 12 22.5 12C23.3284 12 24 12.6716 24 13.5Z" stroke="#141B34" stroke-width="1.5" stroke-linecap="round" stroke-linejoin="round"/>
</svg>
