<svg width="42" height="42" viewBox="0 0 42 42" fill="none" xmlns="http://www.w3.org/2000/svg">
<rect width="42" height="42" rx="21" fill="#F5DAAA"/>
<path d="M25 16.9995C24.7562 17.7308 24.2546 18.2922 23.5446 18.607C21.2642 19.618 19.6185 21.2637 18.6075 23.5441C18.2928 24.2541 17.7314 24.7557 17 24.9995" stroke="#141B34" stroke-linejoin="round"/>
<path d="M12.2 29.7994L11 30.9995M29.8 12.1995L31 10.9995" stroke="#141B34" stroke-linejoin="round"/>
<path d="M26.7881 11.4215L25.2759 12.8746L29.1165 16.7511L30.5941 15.3163C31.0376 14.794 31.1734 14.4004 30.6213 13.6757L29.5155 12.5127L28.3945 11.4069C27.6779 10.7642 27.1135 11.11 26.7881 11.4215Z" stroke="#141B34" stroke-linejoin="round"/>
<path d="M23.0115 12.7571C24.1221 11.5833 24.8827 12.4187 25.2733 12.8839L29.081 16.7068C29.5549 17.0868 30.4219 17.8157 29.276 18.9508C29.0911 19.134 28.9098 19.3258 28.7089 19.4911C27.967 20.1014 27.255 19.5955 26.8777 19.1306L23.002 15.2549C22.5939 14.8883 21.8888 14.2242 22.4843 13.3364C22.6448 13.1315 22.8326 12.9461 23.0115 12.7571Z" stroke="#141B34" stroke-linejoin="round"/>
<path d="M13.5874 30.6196L12.4461 29.4916L11.3621 28.3494C10.7189 27.7062 11.09 27.0629 11.4076 26.7436L12.8897 25.2597L16.7463 29.133L15.2283 30.6241C14.6975 31.0574 14.3335 31.1901 13.6195 30.6241M15.2233 22.9238C14.8327 22.4586 14.0721 21.6232 12.9615 22.797C12.7826 22.986 12.5948 23.1714 12.4343 23.3763C11.8388 24.2641 12.5439 24.9283 12.9519 25.2948L16.8277 29.1705C17.205 29.6354 17.917 30.1413 18.6588 29.531C18.8598 29.3657 19.0411 29.1739 19.226 28.9907C20.3719 27.8557 19.5049 27.1267 19.031 26.7468L15.2233 22.9238Z" stroke="#141B34" stroke-linejoin="round"/>
</svg>
