<svg width="42" height="42" viewBox="0 0 42 42" fill="none" xmlns="http://www.w3.org/2000/svg">
<rect width="42" height="42" rx="21" fill="#F5DAAA"/>
<path d="M28.1012 27H16.963C14.0291 27 12.5622 27 11.6681 25.8828C9.97093 23.7623 11.9047 18.1238 13.0761 16C13.4732 18.4 17.5615 18.3333 19.0507 18C18.0585 16.0012 19.3831 15.3341 20.0453 15.0006L20.0465 15C23 18.5 29.3149 20.404 30.8624 24.2188C31.5309 25.8667 29.6262 27 28.1012 27Z" stroke="black" stroke-linecap="round" stroke-linejoin="round"/>
<path d="M11 23C15.1647 24.4294 17.731 24.8442 21.0217 23.8039C22.0188 23.4887 22.5174 23.3311 22.8281 23.3525C23.1389 23.3739 23.7729 23.6695 25.0408 24.2608C26.6243 24.9992 28.7971 25.4243 31 24.3583" stroke="black" stroke-linecap="round" stroke-linejoin="round"/>
<path d="M22.5 18.5L24 17" stroke="black" stroke-linecap="round" stroke-linejoin="round"/>
<path d="M24.5 20L26 18.5" stroke="black" stroke-linecap="round" stroke-linejoin="round"/>
</svg>
