<svg width="48" height="48" viewBox="0 0 48 48" fill="none" xmlns="http://www.w3.org/2000/svg">
<g clip-path="url(#clip0_500_593)">
<circle cx="24" cy="24" r="24" fill="#FFDD89"/>
<path d="M15.9999 29V26.62C15.9999 24.5 14.9699 23.5 14.9999 21C15.0299 18.28 16.4899 15 19.4999 15C21.3699 15 21.9999 16.8 21.9999 18.5C21.9999 21.61 19.9999 24.16 19.9999 27.18V29C19.9999 29.5304 19.7892 30.0391 19.4141 30.4142C19.0391 30.7893 18.5303 31 17.9999 31C17.4695 31 16.9608 30.7893 16.5857 30.4142C16.2106 30.0391 15.9999 29.5304 15.9999 29Z" stroke="#503629" stroke-linecap="round" stroke-linejoin="round"/>
<path d="M32 33V30.62C32 28.5 33.03 27.5 33 25C32.97 22.28 31.51 19 28.5 19C26.63 19 26 20.8 26 22.5C26 25.61 28 28.16 28 31.18V33C28 33.5304 28.2107 34.0391 28.5858 34.4142C28.9609 34.7893 29.4696 35 30 35C30.5304 35 31.0391 34.7893 31.4142 34.4142C31.7893 34.0391 32 33.5304 32 33Z" stroke="#503629" stroke-linecap="round" stroke-linejoin="round"/>
<path d="M28 30H32" stroke="#503629" stroke-linecap="round" stroke-linejoin="round"/>
<path d="M16 26H20" stroke="#503629" stroke-linecap="round" stroke-linejoin="round"/>
</g>
<defs>
<clipPath id="clip0_500_593">
<rect width="48" height="48" fill="white"/>
</clipPath>
</defs>
</svg>
