<svg width="48" height="48" viewBox="0 0 48 48" fill="none" xmlns="http://www.w3.org/2000/svg">
<g clip-path="url(#clip0_192_275)">
<circle cx="24" cy="24" r="24" fill="#FFDD89"/>
<path d="M23.9822 21C25.639 21 26.9822 19.6569 26.9822 18C26.9822 16.3431 25.639 15 23.9822 15C22.3253 15 20.9822 16.3431 20.9822 18C20.9822 19.6569 22.3253 21 23.9822 21Z" stroke="black" stroke-linecap="round" stroke-linejoin="round"/>
<path d="M18.4821 21C18.0494 21.0045 17.6298 21.1492 17.2863 21.4125C16.9428 21.6757 16.694 22.0433 16.5771 22.46L14.0821 31.5C14.0066 31.7926 13.9982 32.0985 14.0578 32.3947C14.1174 32.691 14.2434 32.9699 14.4262 33.2105C14.6091 33.4511 14.8441 33.6471 15.1136 33.7839C15.383 33.9206 15.68 33.9945 15.9821 34H31.9821C32.2908 33.9999 32.5953 33.9283 32.8717 33.7909C33.1481 33.6535 33.3889 33.454 33.5754 33.208C33.7618 32.962 33.8888 32.6762 33.9464 32.3729C34.0039 32.0697 33.9905 31.7572 33.9071 31.46L31.3821 22.5C31.272 22.0734 31.0241 21.6951 30.6769 21.4239C30.3297 21.1526 29.9027 21.0036 29.4621 21H18.4821Z" stroke="black" stroke-linecap="round" stroke-linejoin="round"/>
</g>
<defs>
<clipPath id="clip0_192_275">
<rect width="48" height="48" fill="white"/>
</clipPath>
</defs>
</svg>
