<svg width="42" height="42" viewBox="0 0 42 42" fill="none" xmlns="http://www.w3.org/2000/svg">
<rect width="42" height="42" rx="21" fill="#F5DAAA"/>
<path d="M17.5923 25C17.2829 25.6819 16.5701 25.986 15.9389 26.3162L12.2926 28.2233C10.8285 28.9891 11.5595 31 13.1299 31C16.622 31 19.3836 29.3064 22.5404 28C23.335 27.6711 23.7201 27.7415 24.5 28.0912" stroke="#141B34" stroke-linecap="round" stroke-linejoin="round"/>
<path d="M17.5 28.0912C18.28 27.7415 18.665 27.6711 19.4596 28C22.6164 29.3064 25.378 31 28.8702 31C30.4405 31 31.1715 28.9891 29.7074 28.2233L26.0611 26.3162C25.4299 25.986 24.7171 25.6819 24.4077 25" stroke="#141B34" stroke-linecap="round" stroke-linejoin="round"/>
<path d="M18.5 13C18.5 14.1046 19.3954 15 20.5 15C21.6046 15 22.5 14.1046 22.5 13C22.5 11.8954 21.6046 11 20.5 11C19.3954 11 18.5 11.8954 18.5 13Z" stroke="#141B34" stroke-linecap="round" stroke-linejoin="round"/>
<path d="M20.5 17C17.1863 17 14.5 19.6863 14.5 23C17.8137 23 20.5 20.3137 20.5 17Z" stroke="#141B34" stroke-linecap="round" stroke-linejoin="round"/>
<path d="M20.5 17C23.8137 17 26.5 19.6863 26.5 23C23.1863 23 20.5 20.3137 20.5 17Z" stroke="#141B34" stroke-linecap="round" stroke-linejoin="round"/>
</svg>
