<svg width="42" height="42" viewBox="0 0 42 42" fill="none" xmlns="http://www.w3.org/2000/svg">
<rect width="42" height="42" rx="21" fill="#F5DAAA"/>
<path d="M24 20C24 17.2386 22.1011 15 19.7588 15C18.1261 15 16.5 16 16 17" stroke="black" stroke-width="1.5" stroke-linecap="round"/>
<path d="M28 20C28 17.7909 26.4818 16 24.609 16C24.0267 16 23.4787 16.1731 23 16.4781" stroke="black" stroke-width="1.5" stroke-linecap="round"/>
<path d="M31 21C31 24.3137 26.5228 27 21 27C15.4771 27 11 24.3137 11 21" stroke="black" stroke-width="1.5" stroke-linecap="round"/>
<path d="M17.8897 20C17.5012 18.2748 16.1309 17 14.5 17C12.567 17 11 18.7909 11 21C11 22.6569 15.4771 24 21 24C26.5228 24 31 22.6569 31 21C31 20.0054 29.4499 18.0217 27.5314 18.0002" stroke="black" stroke-width="1.5" stroke-linecap="round"/>
</svg>
