<svg width="42" height="42" viewBox="0 0 42 42" fill="none" xmlns="http://www.w3.org/2000/svg">
<rect width="42" height="42" rx="21" fill="#F5DAAA"/>
<path d="M31 18C31 21.3137 26.5228 24 21 24C15.4771 24 11 21.3137 11 18C11 14.6863 15.4771 12 21 12C26.5228 12 31 14.6863 31 18Z" stroke="black" stroke-width="1.5"/>
<path d="M21 15.8544C24 14.4409 26 16.7173 26 17.7817C26 20.9514 16 20.7874 16 16.8819C16 14.4975 18 12 21 12" stroke="black" stroke-width="1.5"/>
<path d="M31 18V24C31 27.3137 26.5228 30 21 30C15.4771 30 11 27.3137 11 24V18" stroke="black" stroke-width="1.5"/>
</svg>
