<svg width="42" height="42" viewBox="0 0 42 42" fill="none" xmlns="http://www.w3.org/2000/svg">
<rect width="42" height="42" rx="21" fill="#F5DAAA"/>
<path d="M12.9114 21H27.0886C28.6914 21 29.2786 21.3707 28.8787 22.9821C28.1733 25.8246 26.1759 26.5306 24.3304 28.3859C23.8819 28.8369 24.5798 29.5032 24.5802 29.9992C24.5809 30.933 23.6928 31 22.9854 31H17.0146C16.3072 31 15.4191 30.933 15.4198 29.9992C15.4202 29.5137 16.0972 28.8159 15.6696 28.3859C13.8241 26.5306 11.8267 25.8246 11.1213 22.9821C10.7214 21.3707 11.3086 21 12.9114 21Z" stroke="black" stroke-width="1.5" stroke-linejoin="round"/>
<path d="M27.5 21C27.5 19.2089 25.6001 17.9882 24 18.6922M12.5 21C12.5 19.7067 13.4685 18.6413 14.7151 18.4989C13.901 16.6583 15.6263 14.5941 17.5389 15.0172M17.5389 15.0172C18.0152 12.3276 21.9848 12.3276 22.4611 15.0172C24.4185 14.5842 26.0733 16.6822 25.292 18.4827M17.5389 15.0172C18.1325 15.1485 18.6471 15.4922 19 15.9652" stroke="black" stroke-width="1.5" stroke-linejoin="round"/>
<path d="M26 18L31 12" stroke="black" stroke-width="1.5" stroke-linejoin="round"/>
<path d="M25 15L27 11" stroke="black" stroke-width="1.5" stroke-linejoin="round"/>
</svg>
