<svg width="42" height="42" viewBox="0 0 42 42" fill="none" xmlns="http://www.w3.org/2000/svg">
<rect width="42" height="42" rx="21" fill="#F5DAAA"/>
<path d="M27.2505 19.5H28.6403C30.4918 19.5 31.0421 19.7655 30.9975 21.0838C30.9237 23.2674 29.939 25.8047 26 26.5" stroke="#141B34" stroke-width="1.5" stroke-linecap="round"/>
<path d="M14.9463 29.6145C11.5718 27.02 11.0747 23.3401 11.0014 19.5001C10.9698 17.8413 11.4513 17.5 13.6592 17.5H24.3408C26.5487 17.5 27.0302 17.8413 26.9986 19.5001C26.9253 23.3401 26.4281 27.02 23.0537 29.6145C22.0934 30.3528 21.2831 30.5 19.9194 30.5H18.0806C16.7169 30.5 15.9066 30.3528 14.9463 29.6145Z" stroke="#141B34" stroke-width="1.5" stroke-linecap="round"/>
<path d="M19 17.5V22.5M17.5042 25.2966L17.7962 23.4451C17.8817 22.9028 18.3942 22.5 18.9988 22.5C19.6034 22.5 20.116 22.9028 20.2015 23.4451L20.4934 25.2966C20.6508 26.2944 17.3661 26.1726 17.5042 25.2966Z" stroke="#141B34" stroke-width="1.5" stroke-linecap="round"/>
<path d="M20.3089 11.5C19.7622 11.8386 19.0012 13 19.0012 14.5M16.5397 13C16.5397 13 16 13.5 16 14.5M23.0012 13C22.7279 13.1693 22.5 14 22.5 14.5" stroke="#141B34" stroke-width="1.5" stroke-linecap="round"/>
</svg>
