<svg width="42" height="42" viewBox="0 0 42 42" fill="none" xmlns="http://www.w3.org/2000/svg">
<rect width="42" height="42" rx="21" fill="#FFDD89"/>
<path d="M28 20V21.7558C28 22.5514 28.3161 23.3145 28.8787 23.8771L29.4819 24.4803C29.8136 24.8121 30 25.262 30 25.7311C30 26.708 29.208 27.5 28.2311 27.5H13.7689C12.7919 27.5 12 26.708 12 25.7311C12 25.262 12.1864 24.8121 12.5181 24.4803L13.1213 23.8771C13.6839 23.3145 14 22.5514 14 21.7558V19C14 15.134 17.134 12 21 12" stroke="black" stroke-linecap="round" stroke-linejoin="round"/>
<path d="M24.5 27.5C24.5 29.433 22.933 31 21 31C19.067 31 17.5 29.433 17.5 27.5" stroke="black" stroke-linecap="round" stroke-linejoin="round"/>
<path d="M30 14C30 12.3432 28.6568 11 27 11C25.3431 11 24 12.3432 24 14C24 15.6568 25.3431 17 27 17C28.6568 17 30 15.6568 30 14Z" stroke="black" stroke-linecap="round" stroke-linejoin="round"/>
</svg>
