<svg width="42" height="42" viewBox="0 0 42 42" fill="none" xmlns="http://www.w3.org/2000/svg">
<rect width="42" height="42" rx="21" fill="#FFDD89"/>
<path d="M31 21C31 26.5228 26.5228 31 21 31C15.4771 31 11 26.5228 11 21C11 15.4771 15.4771 11 21 11C26.5228 11 31 15.4771 31 21Z" stroke="black"/>
<path d="M23.75 18.5C23.75 20.0188 22.5188 21.25 21 21.25C19.4812 21.25 18.25 20.0188 18.25 18.5C18.25 16.9812 19.4812 15.75 21 15.75C22.5188 15.75 23.75 16.9812 23.75 18.5Z" stroke="black"/>
<path d="M14.5 28.0001L15.0604 27.0194C15.9506 25.4616 17.6073 24.5001 19.4017 24.5001H22.5984C24.3927 24.5001 26.0494 25.4616 26.9396 27.0194L27.5 28.0001" stroke="black"/>
</svg>
