<svg width="24" height="25" viewBox="0 0 24 25" fill="none" xmlns="http://www.w3.org/2000/svg">
<path d="M6.577 6.42521C6.39699 6.71012 6.15682 6.95219 5.87334 7.13444C5.58985 7.31669 5.26993 7.43471 4.936 7.48021C4.556 7.53421 4.179 7.59221 3.802 7.65521C2.749 7.83021 2 8.75721 2 9.82421V18.2502C2 18.8469 2.23705 19.4192 2.65901 19.8412C3.08097 20.2632 3.65326 20.5002 4.25 20.5002H19.25C19.8467 20.5002 20.419 20.2632 20.841 19.8412C21.2629 19.4192 21.5 18.8469 21.5 18.2502V9.82421C21.5 8.75721 20.75 7.83021 19.698 7.65521C19.3207 7.59234 18.9427 7.53401 18.564 7.48021C18.2302 7.43457 17.9105 7.31649 17.6272 7.13424C17.3439 6.952 17.1039 6.71 16.924 6.42521L16.102 5.10921C15.9174 4.8093 15.6632 4.5583 15.361 4.37744C15.0589 4.19658 14.7175 4.0912 14.366 4.07021C12.6233 3.9766 10.8767 3.9766 9.134 4.07021C8.78245 4.0912 8.44114 4.19658 8.13896 4.37744C7.83678 4.5583 7.58262 4.8093 7.398 5.10921L6.577 6.42521Z" stroke="#FE6A35" stroke-width="1.5" stroke-linecap="round" stroke-linejoin="round"/>
<path d="M16.5 13.0157C16.5 14.2341 16.0259 15.4025 15.182 16.264C14.3381 17.1255 13.1935 17.6095 12 17.6095C10.8065 17.6095 9.66193 17.1255 8.81802 16.264C7.97411 15.4025 7.5 14.2341 7.5 13.0157C7.5 11.7974 7.97411 10.6289 8.81802 9.76743C9.66193 8.90592 10.8065 8.42194 12 8.42194C13.1935 8.42194 14.3381 8.90592 15.182 9.76743C16.0259 10.6289 16.5 11.7974 16.5 13.0157ZM18.75 10.7188H18.758V10.727H18.75V10.7188Z" stroke="#FE6A35" stroke-width="1.5" stroke-linecap="round" stroke-linejoin="round"/>
</svg>
