<svg width="36" height="36" viewBox="0 0 36 36" fill="none" xmlns="http://www.w3.org/2000/svg">
<rect width="36" height="36" rx="18" fill="#F5DAAA"/>
<path d="M26.5576 10L27.4551 10.9757C27.8561 11.4116 28.0566 11.6296 27.9861 11.8148C27.9155 12 27.632 12 27.0649 12C25.7956 12 24.2771 11.7949 23.1111 12.4733C22.3903 12.8927 21.8883 13.6252 21.0392 15M10 24H11.5808C13.5087 24 14.4727 24 15.2862 23.5267C16.0071 23.1073 16.509 22.3748 17.3582 21" stroke="#141B34" stroke-width="1.5" stroke-linecap="round" stroke-linejoin="round"/>
<path d="M26.5576 26L27.4551 25.0243C27.8561 24.5883 28.0566 24.3704 27.9861 24.1852C27.9155 24 27.632 24 27.0649 24C25.7956 24 24.2771 24.2051 23.1111 23.5267C22.2976 23.0534 21.7629 22.1815 20.6935 20.4376L17.7038 15.5624C16.6344 13.8185 16.0997 12.9466 15.2862 12.4733C14.4727 12 13.5087 12 11.5808 12H10" stroke="#141B34" stroke-width="1.5" stroke-linecap="round" stroke-linejoin="round"/>
</svg>
