<svg width="24" height="24" viewBox="0 0 24 24" fill="none" xmlns="http://www.w3.org/2000/svg">
<g clip-path="url(#clip0_1594_1047)">
<path d="M3 7C3.52018 6.8622 4.02741 6.67952 4.516 6.454C5.427 6.016 6.01 5.439 6.453 4.522C6.66 4.094 6.835 3.594 7 3C7.165 3.595 7.34 4.095 7.547 4.521C7.99 5.439 8.573 6.016 9.484 6.454C9.91 6.659 10.409 6.834 11 7C10.4798 7.13812 9.97255 7.32114 9.484 7.547C8.573 7.985 7.99 8.562 7.547 9.479C7.31942 9.96857 7.13634 10.4776 7 11C6.835 10.406 6.66 9.905 6.453 9.479C6.01 8.561 5.427 7.985 4.516 7.547C4.02804 7.3197 3.52067 7.13663 3 7Z" stroke="#FE6A35" stroke-width="1.25" stroke-linecap="round" stroke-linejoin="round"/>
<path d="M3 18C3.55776 17.8455 4.1089 17.668 4.652 17.468C7.194 16.515 8.505 15.23 9.468 12.662C9.66943 12.116 9.84693 11.5615 10 11C10.1531 11.5615 10.3306 12.116 10.532 12.662C11.495 15.229 12.807 16.515 15.348 17.468C15.848 17.6547 16.3987 17.832 17 18C16.4422 18.1545 15.8911 18.332 15.348 18.532C12.806 19.485 11.494 20.77 10.532 23.338C10.3306 23.884 10.1531 24.4385 10 25C9.84693 24.4385 9.66943 23.884 9.468 23.338C8.505 20.77 7.193 19.485 4.652 18.532C4.1089 18.332 3.55776 18.1545 3 18Z" stroke="#FE6A35" stroke-width="1.25" stroke-linecap="round" stroke-linejoin="round"/>
</g>
<defs>
<clipPath id="clip0_1594_1047">
<rect width="24" height="24" fill="white"/>
</clipPath>
</defs>
</svg>
