<svg width="34" height="34" viewBox="0 0 34 34" fill="none" xmlns="http://www.w3.org/2000/svg">
<rect width="34" height="34" rx="17" fill="#FBF9EF"/>
<path d="M9.00011 16C9.25499 16.0003 9.50015 16.0979 9.68548 16.2728C9.87082 16.4478 9.98235 16.687 9.99728 16.9414C10.0122 17.1958 9.92944 17.4464 9.76585 17.6418C9.60226 17.8373 9.37021 17.9629 9.11711 17.993L9.00011 18H8.00011C7.74523 17.9997 7.50008 17.9021 7.31474 17.7272C7.12941 17.5522 7.01788 17.313 7.00294 17.0586C6.988 16.8042 7.07079 16.5536 7.23438 16.3582C7.39797 16.1627 7.63002 16.0371 7.88311 16.007L8.00011 16H9.00011Z" fill="#503629"/>
<path d="M17 7C17.2449 7.00003 17.4813 7.08996 17.6644 7.25272C17.8474 7.41547 17.9643 7.63975 17.993 7.883L18 8V9C17.9997 9.25488 17.9021 9.50003 17.7272 9.68537C17.5522 9.8707 17.313 9.98223 17.0586 9.99717C16.8042 10.0121 16.5536 9.92933 16.3582 9.76574C16.1627 9.60214 16.0371 9.3701 16.007 9.117L16 9V8C16 7.73478 16.1054 7.48043 16.2929 7.29289C16.4804 7.10536 16.7348 7 17 7Z" fill="#503629"/>
<path d="M26.0001 16C26.255 16.0003 26.5001 16.0979 26.6855 16.2728C26.8708 16.4478 26.9823 16.687 26.9973 16.9414C27.0122 17.1958 26.9294 17.4464 26.7658 17.6418C26.6023 17.8373 26.3702 17.9629 26.1171 17.993L26.0001 18H25.0001C24.7452 17.9997 24.5001 17.9021 24.3147 17.7272C24.1294 17.5522 24.0179 17.313 24.0029 17.0586C23.988 16.8042 24.0708 16.5536 24.2344 16.3582C24.398 16.1627 24.63 16.0371 24.8831 16.007L25.0001 16H26.0001Z" fill="#503629"/>
<path d="M9.89288 9.89302C10.0651 9.72084 10.2942 9.61741 10.5372 9.60213C10.7802 9.58685 11.0205 9.66077 11.2129 9.81002L11.3069 9.89302L12.0069 10.593C12.1862 10.773 12.2904 11.0145 12.2981 11.2684C12.3059 11.5224 12.2167 11.7697 12.0486 11.9603C11.8806 12.1509 11.6463 12.2703 11.3934 12.2944C11.1405 12.3185 10.8879 12.2454 10.6869 12.09L10.5929 12.007L9.89288 11.307C9.70541 11.1195 9.6001 10.8652 9.6001 10.6C9.6001 10.3349 9.70541 10.0805 9.89288 9.89302Z" fill="#503629"/>
<path d="M22.6931 9.89301C22.873 9.71367 23.1145 9.60954 23.3685 9.60178C23.6224 9.59403 23.8698 9.68323 24.0604 9.85126C24.2509 10.0193 24.3704 10.2536 24.3945 10.5065C24.4186 10.7594 24.3455 11.012 24.1901 11.213L24.1071 11.307L23.4071 12.007C23.2271 12.1864 22.9856 12.2905 22.7317 12.2982C22.4777 12.306 22.2304 12.2168 22.0398 12.0488C21.8492 11.8807 21.7298 11.6465 21.7057 11.3935C21.6816 11.1406 21.7547 10.888 21.9101 10.687L21.9931 10.593L22.6931 9.89301Z" fill="#503629"/>
<path d="M19 23C19.2652 23 19.5196 23.1054 19.7071 23.2929C19.8946 23.4804 20 23.7348 20 24C20 24.7956 19.6839 25.5587 19.1213 26.1213C18.5587 26.6839 17.7956 27 17 27C16.2044 27 15.4413 26.6839 14.8787 26.1213C14.3161 25.5587 14 24.7956 14 24C14 23.7551 14.09 23.5187 14.2527 23.3356C14.4155 23.1526 14.6397 23.0357 14.883 23.007L15 23H19Z" fill="#503629"/>
<path d="M17 11C18.2593 11 19.4867 11.3962 20.5083 12.1325C21.5299 12.8689 22.2939 13.908 22.6921 15.1026C23.0903 16.2973 23.1026 17.587 22.7271 18.789C22.3516 19.991 21.6074 21.0444 20.6 21.8C20.4622 21.9035 20.2999 21.9697 20.129 21.992L20 22H14C13.7836 22 13.5731 21.9298 13.4 21.8C12.3926 21.0444 11.6484 19.991 11.2729 18.789C10.8974 17.587 10.9097 16.2973 11.3079 15.1026C11.7061 13.908 12.4701 12.8689 13.4917 12.1325C14.5133 11.3962 15.7407 11 17 11Z" fill="#503629"/>
</svg>
